<svg xmlns="http://www.w3.org/2000/svg" width="256" height="256"><path fill-opacity=".016" d="M0 128.004v128.004l128.25-.254 128.25-.254.254-127.75L257.008 0H0v128.004m.485.496c0 70.4.119 99.053.265 63.672.146-35.38.146-92.98 0-128C.604 29.153.485 58.1.485 128.5" fill="#1976D2" fill-rule="evenodd"/><path fill-opacity=".111" d="M102.776 1.98C78.19 7.164 57.675 17.885 39.747 34.918 19.841 53.829 6.691 77.948 1.572 104.934c-2.027 10.687-2.069 33.956-.081 45.356 4.31 24.716 15.823 47.434 33.427 65.963 19.12 20.126 44.035 33.59 70.792 38.256 11.027 1.923 33.553 1.923 44.58 0 17.233-3.005 34.786-10.138 50.157-20.38 9.345-6.228 23.35-19.695 30.583-29.412 11.058-14.854 20.29-35.866 23.023-52.402.619-3.748 1.536-7.596 2.037-8.551 1.147-2.188 1.188-34.75.041-32.942-.54.851-1.066-.615-1.477-4.112-1.657-14.095-10.503-36.197-20.424-51.032-18.388-27.492-50.782-48.404-83.94-54.187-12.166-2.121-36.311-1.873-47.514.489M132 21.691c-10.867 1.819-18.363 7.123-22.973 16.256-1.546 3.061-4.915 8.366-7.487 11.788-3.45 4.59-4.593 6.949-4.359 8.993.293 2.547.707 2.797 5.093 3.078 3.867.247 6.1-.37 11.751-3.25 7.951-4.052 7.975-4.059 7.975-2.119 0 .791-2.549 3.604-5.664 6.25-11.553 9.817-13.709 13.114-11.528 17.627.959 1.984 1.063 1.857 1.124-1.373.038-1.957.675-4.388 1.416-5.402 1.224-1.674 1.4-1.456 1.915 2.386.552 4.116 3.026 8.075 5.047 8.075.55 0 .29-.788-.577-1.75-3.843-4.265-2.584-11.663 2.973-17.464 2.981-3.112 4.581-2.776 3.689.775-.529 2.11-.266 2.439 1.95 2.439 1.516 0 3.215-.918 4.161-2.25 3.683-5.18 8.185-12.628 10.994-18.187 1.65-3.265 4.136-6.764 5.523-7.776 8.608-6.274 22.057-.492 28.177 12.113 3.134 6.455 3.107 16.801-.062 23.328-2.904 5.983-10.469 12.82-18.447 16.674l-6.191 2.99 14.2.054 14.2.054 3.8-4.545c4.448-5.319 8.926-15.811 9.847-23.072 1.985-15.632-9.039-34.651-24.023-41.445-9.33-4.23-22.416-5.939-32.524-4.247M56 98.533c0 .294 1.078 2.656 2.395 5.25 5.412 10.657 20.263 21.2 37.105 26.342 14.827 4.526 18.118 5.787 20.97 8.03 2.956 2.325 6.53 8.786 6.53 11.805 0 2.486-.199 2.483 5.417.076 2.521-1.081 4.583-2.551 4.583-3.268 0-2.579 5.143-8.8 8.784-10.626 2.044-1.025 7.991-3.071 13.216-4.545 18.864-5.323 31.966-13.465 39.553-24.577 2.449-3.586 4.451-7.082 4.449-7.77C199 98.262 184.032 98 127.5 98c-39.325 0-71.5.24-71.5.533M.409 127.5c-.001 9.35.149 13.31.334 8.799.185-4.51.186-12.16.002-17C.562 114.46.41 118.15.409 127.5m64.703.409c-7.453 16.169-2.112 34.406 12.25 41.825 4.312 2.227 6.765 2.72 15.262 3.069 13.091.536 20.309-1.1 40.876-9.265 19.967-7.927 26.221-9.748 33.912-9.873 10.269-.168 16.088 4.527 16.088 12.98 0 3.984-.473 4.94-4.132 8.353-2.567 2.395-6.166 4.467-9.5 5.47-6.05 1.821-22.559 4.51-27.868 4.54-6.604.037-8 .867-8 4.756v3.53l14.25-.57c20.916-.837 31.321-3.507 40.509-10.396 6.378-4.782 9.617-15.526 7.286-24.169-1.247-4.623-7.606-12.374-11.993-14.618-9.179-4.693-24.557-3.017-43.052 4.693-12.444 5.188-27.488 10.503-32.5 11.484-7.278 1.423-15.023.694-19.678-1.853-7.936-4.342-11.202-15.774-6.912-24.189 1.91-3.745 1.91-3.748-.25-5.066-6.597-4.026-12.732-7.61-13.027-7.61-.185 0-1.77 3.109-3.521 6.909m62.138 41.444-3.25.936V217h8l-.136-12.75c-.074-7.012-.412-17.944-.75-24.291l-.614-11.542-3.25.936m-12.437 19.117c-12.291 3.385-17.803 8.258-18.561 16.408-1.1 11.817 12.53 19.905 33.6 19.938 11.466.017 17.532-1.356 26.148-5.92 5.372-2.846 12.541-8.689 11.696-9.533-.233-.233-4.211 1.558-8.841 3.979-17.573 9.192-41.375 8.753-50.348-.929-5.467-5.899-1.585-14.062 7.893-16.598 4.442-1.187 4.6-1.36 4.6-5.022 0-2.086-.338-3.753-.75-3.704-.412.05-2.859.671-5.437 1.381m-3.288 40.639c-2.086.92-8.12 1.996-13.409 2.391-8.69.648-11.054 1.446-11.101 3.75-.008.412 18.243.75 40.558.75 38.102 0 40.553-.107 40.24-1.75-.277-1.458-2.167-1.931-11.33-2.835-6.048-.596-11.894-1.557-12.99-2.136-1.096-.578-7.884-1.229-15.085-1.447-10.683-.323-13.789-.088-16.883 1.277" fill="#1976D2" fill-rule="evenodd"/><path fill-opacity=".126" d="M108 1.47C71.465 7.539 40.618 27.567 20.298 58.412-.688 90.266-5.632 132.445 7.16 170.5c12.57 37.396 45.608 69.112 83.34 80.005 60.668 17.513 121.818-8.199 151.397-63.658C248.21 175.009 255 152.341 255 143.101c0-1.641.45-3.261 1-3.601.578-.357 1-5.733 1-12.726 0-6.659-.326-11.782-.724-11.384-.398.398-1.271-3.014-1.94-7.583-5.136-35.048-25.434-66.549-56.14-87.124C186.084 12.567 170.044 5.975 154 2.521 143.473.255 118.719-.311 108 1.47m17.038 21.566C118.326 25.45 111.849 31.518 108 39c-1.557 3.025-4.66 7.933-6.897 10.907-5.07 6.74-5.78 8.845-3.687 10.937 3.124 3.124 11.527 1.604 19.928-3.605 7.78-4.823 5.311.601-3.283 7.214C106.09 70.586 104 73.429 104 78.135c0 2.126.45 3.865 1 3.865s1-1.52 1-3.378c0-1.857.675-3.937 1.5-4.622 1.277-1.06 1.5-.793 1.5 1.801 0 1.818 1.044 4.286 2.589 6.122 3.151 3.745 5.396 4.144 2.484.442-3.72-4.728-2.316-12.013 3.332-17.289L120 62.651v2.706c0 5.741 5.712 4.091 9.141-2.64 1.181-2.32 3.169-5.567 4.417-7.217 1.247-1.65 3.391-5.55 4.763-8.667 3.102-7.045 6.34-9.333 13.208-9.333 3.89 0 6.099.65 9.213 2.711 8.235 5.449 12.142 13.076 12.214 23.843.081 12.061-6.25 20.572-20.456 27.499l-7 3.414 15.166.016 15.166.017 2.947-3.75c12.936-16.461 13.265-38.302.806-53.594-5.518-6.774-13.475-12.233-21.393-14.679-8.867-2.738-25.456-2.709-33.154.059M57.657 103.11c3.829 7.036 12.334 15.251 21.108 20.386 6.677 3.909 12.686 6.143 29.387 10.926 6.648 1.904 12.031 7.121 13.948 13.516 1.38 4.606 1.367 4.601 6.261 2.556 2.399-1.003 4.26-2.791 5.563-5.345 3.069-6.015 7.811-9.519 15.632-11.55 10.762-2.795 22.021-7.102 28.136-10.764 7.423-4.445 16.158-13.176 19.62-19.609L200.125 98H54.875l2.782 5.11M.385 128c0 6.875.16 9.688.355 6.25.196-3.437.196-9.062 0-12.5-.195-3.437-.355-.625-.355 6.25m65.736-3.481c-6.085 10.314-6.486 22.235-1.114 33.147 3.792 7.703 8.458 11.471 17.763 14.345 8.112 2.505 16.477 2.515 26.835.032 6.847-1.642 23.824-7.714 30.895-11.05 6.259-2.953 18.943-6.271 25.5-6.671 11.839-.723 16.952 2.995 16.985 12.351.037 10.307-11.518 15.33-41.235 17.926l-7.75.677v9.007l11.81-.69c10.907-.638 19.17-1.598 26.69-3.101 5.097-1.019 13.834-5.443 17.372-8.796 10-9.478 9.55-26.043-.952-35.033-5.061-4.332-10.642-5.961-19.92-5.815-9.439.149-13.541 1.289-34.218 9.512-18.654 7.418-26.592 9.603-34.967 9.625-6.786.018-10.34-1.188-14.147-4.799-5.814-5.515-7.138-13.353-3.579-21.186 1.636-3.602 1.782-4.655.728-5.275-.725-.426-3.959-2.339-7.188-4.25C72.4 122.564 69.407 121 68.978 121c-.429 0-1.715 1.584-2.857 3.519m60.129 44.972-3.25 1.412v22.49c0 12.369.341 22.7.758 22.957.416.258 2.441.784 4.5 1.171l3.742.702v-25.112c0-27.282.256-26.231-5.75-23.62m-14.866 19.56c-3.763 1.193-7.773 3.41-10.423 5.761-4.021 3.569-4.332 4.216-4.689 9.755-.3 4.659.046 6.614 1.61 9.104 4.457 7.093 16.664 11.329 32.647 11.329 10.714 0 17.504-1.467 25.471-5.503 4.913-2.488 14.222-10.39 12.318-10.456-.65-.023-5.256 1.942-10.237 4.367-14.656 7.133-30.487 8.484-41.895 3.577-6.015-2.588-8.94-5.504-9.791-9.762-.544-2.719-.137-3.681 2.795-6.613 1.922-1.922 5.273-3.927 7.62-4.559 4.025-1.084 4.19-1.284 4.19-5.09 0-4.672-.554-4.783-9.616-1.91m.116 39.685c-1.913 1.041-6.584 1.838-12.896 2.198-7.818.447-10.12.923-10.964 2.268-.588.936-.86 1.903-.605 2.148 1.007.966 80.699 1.89 81.284.942.329-.531-.084-1.939-.917-3.129-1.336-1.907-2.45-2.163-9.424-2.163-4.349 0-9.836-.626-12.193-1.391-2.357-.764-10.36-1.642-17.785-1.949-11.333-.468-13.981-.296-16.5 1.076" fill="#1976D2" fill-rule="evenodd"/><path fill-opacity=".123" d="M114 .623C76.795 5.359 42.636 25.806 23.077 55.045 12.452 70.931 6.211 85.396 2.387 103c-2.563 11.801-2.585 38.104-.041 49.796 6.982 32.095 25.648 61.203 50.353 78.522C68.552 242.431 84.96 249.702 103 253.606c11.446 2.478 39.062 2.493 50 .028 25.362-5.716 48.485-18.119 65.5-35.134 6.446-6.446 8.631-9.147 15.172-18.752 10.311-15.144 17.971-34.054 20.352-50.248.647-4.4 1.582-8.781 2.076-9.736 1.269-2.449 1.176-25.052-.1-24.264-.588.364-1.009-.744-1.022-2.691-.033-5.068-3.452-19.362-6.854-28.657C233.09 43.081 198.314 12.733 155 2.888 146.653.991 121.867-.378 114 .623m12.5 21.776c-9.433 2.983-13.117 6.265-19.196 17.101-2.16 3.85-5.587 9.172-7.615 11.827-4.323 5.656-4.606 8.026-1.222 10.243 3.305 2.166 9.394 1.154 16.366-2.719 9.145-5.079 8.416-2.075-1.344 5.542-7.948 6.202-9.478 8.438-9.484 13.857-.003 2.612.445 4.75.995 4.75s1-1.489 1-3.309.661-4.182 1.468-5.25c1.38-1.824 1.47-1.724 1.5 1.656.033 3.756 2.012 6.784 5.716 8.746 3.444 1.824 3.829 1.362 1.028-1.234-3.46-3.207-4.369-8.421-2.249-12.89 1.889-3.98 7.35-9.585 6.18-6.342-1.554 4.305 4.101 6.261 6.86 2.373 5.939-8.369 10.992-16.847 12.262-20.573 1.881-5.52 5.938-8.168 12.525-8.173 12.346-.01 21.71 11.428 21.71 26.518 0 6.707-4.634 16.228-9.948 20.437C159.146 88.052 147.966 94 146.056 94c-.581 0-1.056.45-1.056 1 0 .622 5.628 1 14.884 1h14.883l3.573-3.955c7.352-8.137 11.009-18.701 10.509-30.355-.796-18.527-13.781-34.556-31.809-39.264-6.722-1.755-25.024-1.772-30.54-.027M55 98.04c0 2.853 4.972 10.146 10.888 15.969 4.341 4.274 9.36 7.924 14.612 10.626 7.762 3.994 9.818 4.757 25.285 9.377 4.007 1.197 8.636 3.313 10.287 4.702 3.08 2.591 5.928 8.073 5.928 11.408 0 2.296 1.737 2.367 6.942.285 2.36-.945 4.249-2.473 4.636-3.75 1.016-3.351 5.244-8.514 8.224-10.044 1.484-.762 6.298-2.38 10.698-3.596 16.29-4.5 27.709-10.187 35.878-17.87C192.62 111.158 200 100.488 200 98.345 200 97.231 187.563 97 127.5 97c-49.518 0-72.5.33-72.5 1.04M.385 128c0 6.875.16 9.688.355 6.25.196-3.437.196-9.062 0-12.5-.195-3.437-.355-.625-.355 6.25m64.571-1.563c-8.454 17.174-3.028 35.972 12.605 43.668 13.299 6.547 28.11 5.032 55.176-5.641 28.963-11.421 39.01-12.914 46.2-6.864 3.568 3.003 4.734 7.838 3.09 12.819-2.628 7.962-8.683 9.925-43.777 14.187l-4.25.517v9.148l12.75-.714c15.468-.867 28.078-2.948 34.194-5.643 6.534-2.879 13.68-10.265 15.639-16.165 3.622-10.902-1.854-23.065-13.083-29.06-3.29-1.756-5.687-2.131-13.5-2.113-11.008.025-13.239.633-36.609 9.983-21.32 8.529-31.92 10.64-40.603 8.087-7.864-2.313-11.056-6.488-11.61-15.189-.284-4.463.069-7.246 1.21-9.534.887-1.777 1.612-3.56 1.612-3.963 0-.573-12.059-8.339-15.161-9.764-.363-.167-2.111 2.642-3.883 6.241m61.799 42.409-3.745 1.654-.005 23.25c-.003 12.787.107 23.273.245 23.301.138.028 2.162.295 4.5.593l4.25.542v-25.593c0-14.076-.338-25.55-.75-25.497-.412.053-2.435.84-4.495 1.75m-13.973 19.635c-8.677 2.855-14.055 6.467-16.126 10.831-6.247 13.166 6.772 24.859 29.344 26.354 14.052.931 25.993-2.34 36.226-9.923 5.297-3.926 7.436-6.414 6.401-7.449-.231-.231-4.179 1.471-8.774 3.782-9.856 4.959-12.139 5.7-21.171 6.87-13.155 1.705-26.895-2.012-30.802-8.333-3.501-5.665-.179-11.356 8.264-14.161 4.691-1.558 4.856-1.744 4.856-5.473 0-2.124-.338-4.052-.75-4.285-.412-.233-3.773.571-7.468 1.787m-1.23 39.944c-2.585 1.263-6.727 2.058-12 2.303-10.757.501-12.552.948-12.552 3.13 0 1.702 1.854 1.863 28.663 2.481 15.764.364 34.244.661 41.067.661h12.405l-.702-2.25c-.944-3.023-2.205-3.709-6.933-3.774-9.275-.128-14.273-.77-17.535-2.254-2.398-1.09-7.315-1.676-15.965-1.901-10.743-.28-13.055-.054-16.448 1.604" fill="#1976D2" fill-rule="evenodd"/></svg>